<svg xmlns="http://www.w3.org/2000/svg" xmlns:xlink="http://www.w3.org/1999/xlink" width="1080" zoomAndPan="magnify" viewBox="0 0 810 809.999993" height="1080" preserveAspectRatio="xMidYMid meet" version="1.0"><defs><clipPath id="046fa8ea97"><path d="M 551.1875 479.0625 L 567 479.0625 L 567 487.710938 L 551.1875 487.710938 Z M 551.1875 479.0625 " clip-rule="nonzero"/></clipPath><clipPath id="b982dc9be8"><path d="M 152 124.03125 L 658 124.03125 L 658 589 L 152 589 Z M 152 124.03125 " clip-rule="nonzero"/></clipPath><clipPath id="2c1503b498"><path d="M 19 455 L 791 455 L 791 685.78125 L 19 685.78125 Z M 19 455 " clip-rule="nonzero"/></clipPath></defs><path fill="#b75a39" d="M 298.824219 450.195312 C 298.824219 450.195312 280.296875 450.195312 280.609375 461.164062 C 280.988281 474.503906 328.484375 482.53125 392.507812 483.308594 C 456.53125 484.085938 539.09375 481.539062 549.8125 465.742188 C 557.140625 454.945312 542.933594 440.570312 530.675781 444.648438 C 530.675781 444.648438 529.117188 436.441406 519.386719 433.941406 C 509.65625 431.441406 501.484375 440.570312 501.484375 440.570312 C 501.484375 440.570312 508.683594 425.417969 492.335938 420.171875 C 475.988281 414.929688 466.261719 432.996094 466.261719 432.996094 C 466.261719 432.996094 428.117188 417.066406 369.542969 429.496094 C 369.542969 429.496094 367.015625 419.785156 359.035156 417.453125 C 351.054688 415.125 345.800781 420.171875 343.855469 426.195312 C 343.855469 426.195312 332.761719 423.28125 326.828125 428.722656 C 320.894531 434.160156 323.207031 439.792969 323.207031 439.792969 C 323.207031 439.792969 302.015625 431.050781 298.824219 450.195312 " fill-opacity="1" fill-rule="nonzero"/><path fill="#9c958b" d="M 356.992188 426 C 356.992188 426 367.5 397.152344 378.882812 366.851562 C 390.269531 336.546875 404.863281 324.902344 424.714844 323.4375 C 444.5625 321.976562 452.152344 337.832031 460.617188 344.035156 C 469.082031 350.242188 489.222656 351.550781 491.558594 356.285156 C 493.894531 361.023438 484.261719 373.84375 468.207031 380.253906 C 452.152344 386.664062 442.808594 388.0625 447.480469 399.601562 C 452.152344 411.140625 479.132812 410.433594 479.882812 427.167969 C 480.757812 446.691406 351.152344 452.808594 356.992188 426 " fill-opacity="1" fill-rule="nonzero"/><path fill="#fecdbf" d="M 425.503906 443.628906 C 420.722656 454.167969 424.90625 454.460938 429.089844 451.835938 C 429.089844 451.835938 430.84375 455.335938 435.511719 451.546875 C 435.511719 451.546875 437.652344 454.65625 442.519531 451.351562 C 442.519531 451.351562 444.464844 455.429688 456.433594 449.507812 C 468.402344 443.582031 479.394531 437.269531 478.035156 429.984375 C 476.671875 422.699219 467.039062 414.054688 455.265625 415.316406 C 443.492188 416.578125 430.285156 433.089844 425.503906 443.628906 " fill-opacity="1" fill-rule="nonzero"/><path fill="#252120" d="M 429.773438 450.347656 C 429.632812 450.347656 429.492188 450.308594 429.367188 450.230469 C 429.019531 450.003906 428.921875 449.542969 429.144531 449.199219 C 429.210938 449.097656 435.8125 438.933594 438.804688 434.882812 C 439.050781 434.554688 439.519531 434.484375 439.847656 434.726562 C 440.179688 434.972656 440.25 435.4375 440.003906 435.769531 C 437.035156 439.78125 430.464844 449.90625 430.398438 450.007812 C 430.253906 450.230469 430.015625 450.347656 429.773438 450.347656 " fill-opacity="1" fill-rule="nonzero"/><path fill="#252120" d="M 436.390625 450.347656 C 436.222656 450.347656 436.050781 450.292969 435.914062 450.179688 C 435.597656 449.917969 435.550781 449.449219 435.8125 449.128906 C 435.882812 449.046875 442.769531 440.722656 445.671875 437.632812 C 445.953125 437.332031 446.425781 437.320312 446.726562 437.597656 C 447.027344 437.882812 447.042969 438.351562 446.761719 438.652344 C 443.890625 441.707031 437.03125 449.996094 436.964844 450.078125 C 436.816406 450.257812 436.601562 450.347656 436.390625 450.347656 " fill-opacity="1" fill-rule="nonzero"/><path fill="#252120" d="M 443.976562 450.347656 C 443.644531 450.347656 443.339844 450.125 443.253906 449.785156 C 443.171875 449.445312 443.332031 449.101562 443.628906 448.945312 C 443.914062 448.714844 445.03125 447.507812 446.015625 446.441406 C 447.898438 444.410156 450.238281 441.882812 451.671875 440.679688 C 451.988281 440.414062 452.457031 440.457031 452.722656 440.773438 C 452.988281 441.085938 452.945312 441.554688 452.632812 441.820312 C 451.269531 442.960938 448.867188 445.558594 447.113281 447.453125 C 444.636719 450.128906 444.5 450.242188 444.160156 450.328125 C 444.097656 450.339844 444.039062 450.347656 443.976562 450.347656 " fill-opacity="1" fill-rule="nonzero"/><path fill="#fecdbf" d="M 416 443.628906 C 420.777344 454.167969 416.59375 454.460938 412.410156 451.835938 C 412.410156 451.835938 410.660156 455.335938 405.988281 451.546875 C 405.988281 451.546875 403.847656 454.65625 398.984375 451.351562 C 398.984375 451.351562 397.039062 455.429688 385.070312 449.507812 C 373.101562 443.582031 362.105469 437.269531 363.46875 429.984375 C 364.832031 422.699219 374.464844 414.054688 386.238281 415.316406 C 398.011719 416.578125 411.21875 433.089844 416 443.628906 " fill-opacity="1" fill-rule="nonzero"/><path fill="#252120" d="M 411.730469 450.347656 C 411.488281 450.347656 411.246094 450.230469 411.101562 450.007812 C 411.039062 449.90625 404.464844 439.78125 401.496094 435.769531 C 401.253906 435.4375 401.324219 434.972656 401.65625 434.726562 C 401.984375 434.484375 402.453125 434.554688 402.695312 434.882812 C 405.691406 438.933594 412.289062 449.097656 412.355469 449.199219 C 412.578125 449.542969 412.480469 450.003906 412.136719 450.230469 C 412.007812 450.308594 411.871094 450.347656 411.730469 450.347656 " fill-opacity="1" fill-rule="nonzero"/><path fill="#252120" d="M 405.113281 450.347656 C 404.898438 450.347656 404.683594 450.257812 404.539062 450.078125 C 404.46875 449.996094 397.613281 441.707031 394.742188 438.652344 C 394.460938 438.351562 394.472656 437.882812 394.777344 437.601562 C 395.074219 437.320312 395.546875 437.332031 395.828125 437.632812 C 398.730469 440.722656 405.621094 449.046875 405.6875 449.128906 C 405.949219 449.449219 405.90625 449.917969 405.589844 450.179688 C 405.449219 450.292969 405.28125 450.347656 405.113281 450.347656 " fill-opacity="1" fill-rule="nonzero"/><path fill="#252120" d="M 397.523438 450.347656 C 397.464844 450.347656 397.402344 450.339844 397.339844 450.328125 C 397.003906 450.242188 396.867188 450.128906 394.390625 447.453125 C 392.636719 445.558594 390.230469 442.960938 388.871094 441.820312 C 388.554688 441.554688 388.515625 441.085938 388.777344 440.773438 C 389.042969 440.453125 389.515625 440.414062 389.828125 440.679688 C 391.261719 441.882812 393.605469 444.410156 395.484375 446.441406 C 396.472656 447.507812 397.585938 448.714844 397.871094 448.945312 C 398.167969 449.101562 398.332031 449.445312 398.246094 449.785156 C 398.160156 450.125 397.859375 450.347656 397.523438 450.347656 " fill-opacity="1" fill-rule="nonzero"/><path fill="#252120" d="M 491.558594 356.285156 C 491.410156 355.980469 491.183594 355.691406 490.890625 355.414062 C 488.511719 354.585938 485.238281 353.941406 483.582031 356.070312 C 481.582031 358.632812 482.046875 366.632812 484.164062 370.289062 C 490.09375 364.796875 492.949219 359.105469 491.558594 356.285156 " fill-opacity="1" fill-rule="nonzero"/><path fill="#252120" d="M 440.269531 357.851562 C 445.089844 361.398438 449.792969 354.070312 445.433594 351.320312 C 441.074219 348.574219 435.453125 354.300781 440.269531 357.851562 " fill-opacity="1" fill-rule="nonzero"/><path fill="#252120" d="M 402.65625 359.546875 C 402.554688 359.546875 402.449219 359.523438 402.347656 359.480469 C 402.101562 359.367188 396.285156 356.703125 395.148438 352.855469 C 394.75 351.503906 394.960938 350.175781 395.777344 348.910156 C 399.449219 343.230469 408.875 348.441406 409.273438 348.667969 C 409.632812 348.867188 409.761719 349.320312 409.558594 349.679688 C 409.355469 350.039062 408.898438 350.164062 408.542969 349.964844 C 408.457031 349.917969 399.945312 345.203125 397.03125 349.71875 C 396.449219 350.613281 396.304688 351.503906 396.578125 352.4375 C 397.363281 355.089844 401.453125 357.441406 402.964844 358.121094 C 403.339844 358.292969 403.507812 358.734375 403.335938 359.109375 C 403.210938 359.382812 402.941406 359.546875 402.65625 359.546875 " fill-opacity="1" fill-rule="nonzero"/><path fill="#252120" d="M 517.109375 466.226562 C 516.832031 466.226562 516.566406 466.070312 516.441406 465.804688 C 516.378906 465.679688 514.859375 462.675781 510.371094 462.230469 C 505.863281 461.765625 502.738281 465.886719 502.707031 465.925781 C 502.457031 466.257812 501.988281 466.324219 501.664062 466.082031 C 501.332031 465.835938 501.261719 465.371094 501.507812 465.039062 C 501.65625 464.84375 505.164062 460.199219 510.519531 460.75 C 515.878906 461.285156 517.710938 465.003906 517.785156 465.164062 C 517.960938 465.535156 517.804688 465.980469 517.433594 466.15625 C 517.332031 466.203125 517.222656 466.226562 517.109375 466.226562 " fill-opacity="1" fill-rule="nonzero"/><path fill="#252120" d="M 420.746094 475.382812 C 420.449219 475.382812 420.171875 475.207031 420.054688 474.917969 C 420.027344 474.851562 417.316406 468.320312 412.570312 467.71875 C 407.859375 467.136719 404.226562 472.339844 404.1875 472.390625 C 403.957031 472.734375 403.492188 472.820312 403.152344 472.589844 C 402.8125 472.359375 402.726562 471.894531 402.957031 471.554688 C 403.121094 471.308594 407.09375 465.515625 412.761719 466.242188 C 418.375 466.953125 421.316406 474.054688 421.4375 474.359375 C 421.589844 474.738281 421.40625 475.171875 421.023438 475.328125 C 420.933594 475.363281 420.839844 475.382812 420.746094 475.382812 " fill-opacity="1" fill-rule="nonzero"/><path fill="#252120" d="M 312.042969 464.210938 C 312.003906 464.210938 311.96875 464.207031 311.929688 464.203125 C 311.523438 464.144531 311.242188 463.765625 311.300781 463.359375 C 311.347656 463.0625 312.449219 456.0625 318.996094 454.117188 C 325.507812 452.179688 331.011719 457.570312 331.242188 457.800781 C 331.53125 458.089844 331.53125 458.558594 331.242188 458.851562 C 330.949219 459.144531 330.480469 459.140625 330.1875 458.855469 C 330.140625 458.804688 325.070312 453.867188 319.421875 455.542969 C 313.796875 457.214844 312.789062 463.515625 312.777344 463.578125 C 312.722656 463.945312 312.40625 464.210938 312.042969 464.210938 " fill-opacity="1" fill-rule="nonzero"/><path fill="#252120" d="M 344.050781 462.195312 C 343.921875 462.195312 343.792969 462.160156 343.671875 462.09375 C 343.320312 461.882812 343.199219 461.425781 343.410156 461.070312 C 343.488281 460.941406 345.316406 457.917969 348.9375 457.078125 C 351.507812 456.480469 354.292969 457.132812 357.207031 459.035156 C 357.554688 459.257812 357.648438 459.71875 357.425781 460.066406 C 357.203125 460.410156 356.738281 460.507812 356.394531 460.28125 C 353.835938 458.613281 351.4375 458.023438 349.273438 458.527344 C 346.269531 459.226562 344.710938 461.804688 344.695312 461.828125 C 344.554688 462.0625 344.304688 462.195312 344.050781 462.195312 " fill-opacity="1" fill-rule="nonzero"/><path fill="#b75a39" d="M 265.523438 480.128906 C 267.023438 486.121094 287.699219 484.457031 287.363281 479.128906 C 287.03125 473.804688 264.023438 474.136719 265.523438 480.128906 " fill-opacity="1" fill-rule="nonzero"/><path fill="#b75a39" d="M 244.066406 467.996094 C 245.140625 473.988281 259.917969 472.324219 259.679688 466.996094 C 259.441406 461.671875 242.996094 462.003906 244.066406 467.996094 " fill-opacity="1" fill-rule="nonzero"/><g clip-path="url(#046fa8ea97)"><path fill="#b75a39" d="M 551.390625 483.910156 C 552.460938 489.898438 567.242188 488.234375 567.003906 482.910156 C 566.765625 477.585938 550.316406 477.917969 551.390625 483.910156 " fill-opacity="1" fill-rule="nonzero"/></g><g clip-path="url(#b982dc9be8)"><path fill="#957557" d="M 405 124.4375 C 256.734375 124.4375 164.726562 301.730469 152.59375 468.6875 L 231.046875 532.308594 L 231.09375 532.308594 C 344.496094 606.488281 460.375 608.148438 578.90625 532.308594 L 578.953125 532.308594 L 657.40625 468.6875 C 645.273438 301.730469 553.265625 124.4375 405 124.4375 Z M 405 124.4375 " fill-opacity="1" fill-rule="nonzero"/></g><g clip-path="url(#2c1503b498)"><path fill="#604533" d="M 751.308594 463.335938 C 707.933594 442.421875 657.40625 468.6875 657.40625 468.6875 L 578.953125 532.308594 L 578.90625 532.308594 C 578.90625 532.308594 553.28125 522.527344 532.460938 526.789062 C 511.640625 531.066406 499.882812 550.214844 478.277344 552.878906 C 457.960938 555.390625 439.390625 543.589844 405 543.589844 C 370.609375 543.589844 352.039062 555.390625 331.722656 552.878906 C 310.117188 550.214844 298.359375 531.066406 277.539062 526.789062 C 256.71875 522.527344 231.09375 532.308594 231.09375 532.308594 L 231.046875 532.308594 L 152.59375 468.6875 C 152.59375 468.6875 102.066406 442.421875 58.691406 463.335938 C 15.300781 484.261719 20.136719 544.175781 20.136719 544.175781 L 23.417969 563.703125 L 23.417969 563.71875 C 23.417969 563.71875 28.039062 588.710938 37.480469 606.570312 L 37.496094 606.585938 L 44.777344 617.230469 C 52.390625 625.28125 69.210938 637.835938 89.621094 649.964844 L 99.796875 655.777344 C 127.820312 671.25 160.449219 684.558594 185.207031 684.558594 C 234.769531 684.558594 260.082031 663.855469 293.871094 663.855469 C 327.65625 663.855469 365.480469 685.308594 405 685.308594 C 444.519531 685.308594 482.34375 663.855469 516.128906 663.855469 C 549.917969 663.855469 575.230469 684.558594 624.792969 684.558594 C 649.550781 684.558594 682.179688 671.25 710.203125 655.777344 L 720.378906 649.964844 C 740.789062 637.835938 757.609375 625.28125 765.222656 617.230469 L 772.503906 606.585938 L 772.519531 606.570312 C 781.960938 588.710938 786.582031 563.71875 786.582031 563.71875 L 786.582031 563.703125 L 789.863281 544.175781 C 789.863281 544.175781 794.699219 484.261719 751.308594 463.335938 Z M 751.308594 463.335938 " fill-opacity="1" fill-rule="nonzero"/></g><path fill="#e7f2f1" d="M 789.863281 544.175781 C 797.539062 553.972656 804.21875 565.332031 810 578.101562 C 802.457031 572.613281 794.664062 567.800781 786.582031 563.703125 C 762.414062 551.472656 735.710938 545.679688 705.859375 547.867188 C 705.613281 542.019531 708.144531 536.390625 712.667969 532.683594 L 728.851562 519.378906 C 733 515.984375 735.289062 511.347656 735.792969 506.546875 L 735.90625 506.546875 C 757.773438 513.011719 775.542969 525.875 789.863281 544.175781 Z M 789.863281 544.175781 " fill-opacity="1" fill-rule="nonzero"/><path fill="#e7f2f1" d="M 765.222656 617.230469 C 740.480469 602.621094 714.824219 592.921875 687.503906 592.042969 C 699.425781 586.476562 706.921875 574.265625 706.382812 560.992188 L 705.859375 547.867188 C 731.761719 560.699219 755.78125 579.503906 772.503906 606.585938 C 776.847656 613.574219 780.6875 621.117188 783.953125 629.261719 C 777.761719 624.96875 771.523438 620.9375 765.222656 617.230469 Z M 765.222656 617.230469 " fill-opacity="1" fill-rule="nonzero"/><path fill="#fec4b9" d="M 646.316406 629.296875 C 640.78125 632.070312 633.777344 631.613281 628.550781 627.109375 C 596.132812 599.175781 577.875 563.324219 578.953125 532.308594 C 579.363281 520.242188 582.710938 508.914062 589.273438 499.054688 C 602.078125 479.824219 628.320312 469.113281 657.40625 468.6875 C 680.496094 468.347656 705.371094 474.5 726.796875 488 C 733.457031 492.195312 736.527344 499.527344 735.792969 506.546875 C 735.289062 511.347656 733 515.984375 728.851562 519.378906 L 712.667969 532.683594 C 708.144531 536.390625 705.613281 542.023438 705.859375 547.867188 L 706.382812 560.992188 C 706.921875 574.265625 699.425781 586.476562 687.503906 592.042969 C 686.867188 592.351562 686.214844 592.628906 685.542969 592.890625 L 667.449219 599.960938 C 663.121094 601.640625 659.757812 605.101562 658.175781 609.460938 L 654.222656 620.414062 C 652.734375 624.527344 649.8125 627.566406 646.316406 629.296875 Z M 646.316406 629.296875 " fill-opacity="1" fill-rule="nonzero"/><path fill="#e7f2f1" d="M 710.203125 655.777344 C 690.050781 643.382812 668.871094 634.195312 646.316406 629.296875 C 649.8125 627.566406 652.734375 624.527344 654.222656 620.414062 L 658.175781 609.460938 C 659.757812 605.101562 663.121094 601.640625 667.449219 599.960938 L 685.542969 592.890625 C 686.214844 592.628906 686.867188 592.351562 687.503906 592.042969 C 701.761719 607.992188 712.636719 627.386719 720.378906 649.964844 C 722.125 655.023438 723.707031 660.25 725.128906 665.621094 C 720.214844 662.140625 715.25 658.859375 710.203125 655.777344 Z M 710.203125 655.777344 " fill-opacity="1" fill-rule="nonzero"/><path fill="#543927" d="M 577.515625 350.511719 C 577.515625 351.1875 577.484375 351.863281 577.417969 352.535156 C 577.351562 353.210938 577.25 353.878906 577.121094 354.542969 C 576.988281 355.207031 576.824219 355.863281 576.625 356.511719 C 576.429688 357.15625 576.203125 357.792969 575.941406 358.417969 C 575.683594 359.046875 575.394531 359.65625 575.074219 360.253906 C 574.757812 360.851562 574.410156 361.429688 574.03125 361.992188 C 573.65625 362.554688 573.253906 363.097656 572.824219 363.621094 C 572.394531 364.144531 571.941406 364.644531 571.460938 365.125 C 570.984375 365.605469 570.480469 366.058594 569.957031 366.488281 C 569.433594 366.917969 568.890625 367.320312 568.328125 367.695312 C 567.765625 368.070312 567.183594 368.417969 566.589844 368.738281 C 565.992188 369.058594 565.378906 369.347656 564.753906 369.605469 C 564.128906 369.863281 563.492188 370.09375 562.84375 370.289062 C 562.195312 370.484375 561.539062 370.648438 560.875 370.78125 C 560.210938 370.914062 559.542969 371.011719 558.867188 371.078125 C 558.195312 371.144531 557.519531 371.179688 556.84375 371.179688 C 556.164062 371.179688 555.488281 371.144531 554.816406 371.078125 C 554.140625 371.011719 553.472656 370.914062 552.808594 370.78125 C 552.144531 370.648438 551.488281 370.484375 550.839844 370.289062 C 550.191406 370.09375 549.554688 369.863281 548.929688 369.605469 C 548.304688 369.347656 547.695312 369.058594 547.097656 368.738281 C 546.5 368.417969 545.917969 368.070312 545.355469 367.695312 C 544.792969 367.320312 544.25 366.917969 543.726562 366.488281 C 543.203125 366.058594 542.703125 365.605469 542.222656 365.125 C 541.746094 364.644531 541.289062 364.144531 540.859375 363.621094 C 540.429688 363.097656 540.027344 362.554688 539.652344 361.992188 C 539.277344 361.429688 538.929688 360.851562 538.609375 360.253906 C 538.289062 359.65625 538 359.046875 537.742188 358.417969 C 537.480469 357.792969 537.253906 357.15625 537.058594 356.511719 C 536.863281 355.863281 536.695312 355.207031 536.566406 354.542969 C 536.433594 353.878906 536.332031 353.210938 536.265625 352.535156 C 536.199219 351.863281 536.167969 351.1875 536.167969 350.511719 C 536.167969 349.832031 536.199219 349.160156 536.265625 348.484375 C 536.332031 347.8125 536.433594 347.140625 536.566406 346.480469 C 536.695312 345.816406 536.863281 345.160156 537.058594 344.511719 C 537.253906 343.863281 537.480469 343.226562 537.742188 342.601562 C 538 341.976562 538.289062 341.363281 538.609375 340.769531 C 538.929688 340.171875 539.277344 339.589844 539.652344 339.027344 C 540.027344 338.464844 540.429688 337.921875 540.859375 337.398438 C 541.289062 336.875 541.746094 336.375 542.222656 335.894531 C 542.703125 335.417969 543.203125 334.964844 543.726562 334.535156 C 544.25 334.105469 544.792969 333.703125 545.355469 333.324219 C 545.917969 332.949219 546.5 332.601562 547.097656 332.285156 C 547.695312 331.964844 548.304688 331.675781 548.929688 331.417969 C 549.554688 331.15625 550.191406 330.929688 550.839844 330.734375 C 551.488281 330.535156 552.144531 330.371094 552.808594 330.238281 C 553.472656 330.109375 554.140625 330.007812 554.816406 329.941406 C 555.488281 329.875 556.164062 329.84375 556.84375 329.84375 C 557.519531 329.84375 558.195312 329.875 558.867188 329.941406 C 559.542969 330.007812 560.210938 330.109375 560.875 330.238281 C 561.539062 330.371094 562.195312 330.535156 562.84375 330.734375 C 563.492188 330.929688 564.128906 331.15625 564.753906 331.417969 C 565.378906 331.675781 565.992188 331.964844 566.589844 332.285156 C 567.183594 332.601562 567.765625 332.949219 568.328125 333.324219 C 568.890625 333.703125 569.433594 334.105469 569.957031 334.535156 C 570.480469 334.964844 570.984375 335.417969 571.460938 335.894531 C 571.941406 336.375 572.394531 336.875 572.824219 337.398438 C 573.253906 337.921875 573.65625 338.464844 574.03125 339.027344 C 574.410156 339.589844 574.757812 340.171875 575.074219 340.769531 C 575.394531 341.363281 575.683594 341.976562 575.941406 342.601562 C 576.203125 343.226562 576.429688 343.863281 576.625 344.511719 C 576.824219 345.160156 576.988281 345.816406 577.121094 346.480469 C 577.25 347.140625 577.351562 347.8125 577.417969 348.484375 C 577.484375 349.160156 577.515625 349.832031 577.515625 350.511719 Z M 577.515625 350.511719 " fill-opacity="1" fill-rule="nonzero"/><path fill="#fec4b9" d="M 405 359.898438 C 435 359.898438 446.070312 319.445312 446.347656 318.449219 C 481.589844 334.25 506.136719 369.628906 506.136719 410.734375 C 506.136719 466.566406 460.851562 511.835938 405 511.835938 C 349.148438 511.835938 303.863281 466.566406 303.863281 410.734375 C 303.863281 369.628906 328.410156 334.25 363.652344 318.449219 C 363.929688 319.445312 375 359.898438 405 359.898438 Z M 405 359.898438 " fill-opacity="1" fill-rule="nonzero"/><path fill="#543927" d="M 273.832031 350.511719 C 273.832031 351.1875 273.800781 351.863281 273.734375 352.535156 C 273.667969 353.210938 273.566406 353.878906 273.433594 354.542969 C 273.304688 355.207031 273.136719 355.863281 272.941406 356.511719 C 272.746094 357.15625 272.515625 357.792969 272.257812 358.417969 C 272 359.046875 271.710938 359.65625 271.390625 360.253906 C 271.070312 360.851562 270.722656 361.429688 270.347656 361.992188 C 269.972656 362.554688 269.570312 363.097656 269.140625 363.621094 C 268.710938 364.144531 268.253906 364.644531 267.777344 365.125 C 267.296875 365.605469 266.796875 366.058594 266.273438 366.488281 C 265.75 366.917969 265.207031 367.320312 264.644531 367.695312 C 264.082031 368.070312 263.5 368.417969 262.902344 368.738281 C 262.304688 369.058594 261.695312 369.347656 261.070312 369.605469 C 260.445312 369.863281 259.808594 370.09375 259.160156 370.289062 C 258.511719 370.484375 257.855469 370.648438 257.191406 370.78125 C 256.527344 370.914062 255.859375 371.011719 255.183594 371.078125 C 254.511719 371.144531 253.835938 371.179688 253.15625 371.179688 C 252.480469 371.179688 251.804688 371.144531 251.132812 371.078125 C 250.457031 371.011719 249.789062 370.914062 249.125 370.78125 C 248.460938 370.648438 247.804688 370.484375 247.15625 370.289062 C 246.507812 370.09375 245.871094 369.863281 245.246094 369.605469 C 244.621094 369.347656 244.007812 369.058594 243.410156 368.738281 C 242.816406 368.417969 242.234375 368.070312 241.671875 367.695312 C 241.109375 367.320312 240.566406 366.917969 240.042969 366.488281 C 239.519531 366.058594 239.015625 365.605469 238.539062 365.125 C 238.058594 364.644531 237.605469 364.144531 237.175781 363.621094 C 236.746094 363.097656 236.34375 362.554688 235.96875 361.992188 C 235.589844 361.429688 235.242188 360.851562 234.925781 360.253906 C 234.605469 359.65625 234.316406 359.046875 234.058594 358.417969 C 233.796875 357.792969 233.570312 357.15625 233.375 356.511719 C 233.175781 355.863281 233.011719 355.207031 232.878906 354.542969 C 232.75 353.878906 232.648438 353.210938 232.582031 352.535156 C 232.515625 351.863281 232.484375 351.1875 232.484375 350.511719 C 232.484375 349.832031 232.515625 349.160156 232.582031 348.484375 C 232.648438 347.8125 232.75 347.140625 232.878906 346.480469 C 233.011719 345.816406 233.175781 345.160156 233.375 344.511719 C 233.570312 343.863281 233.796875 343.226562 234.058594 342.601562 C 234.316406 341.976562 234.605469 341.363281 234.925781 340.769531 C 235.242188 340.171875 235.589844 339.589844 235.96875 339.027344 C 236.34375 338.464844 236.746094 337.921875 237.175781 337.398438 C 237.605469 336.875 238.058594 336.375 238.539062 335.894531 C 239.015625 335.417969 239.519531 334.964844 240.042969 334.535156 C 240.566406 334.105469 241.109375 333.703125 241.671875 333.324219 C 242.234375 332.949219 242.816406 332.601562 243.410156 332.285156 C 244.007812 331.964844 244.621094 331.675781 245.246094 331.417969 C 245.871094 331.15625 246.507812 330.929688 247.15625 330.734375 C 247.804688 330.535156 248.460938 330.371094 249.125 330.238281 C 249.789062 330.109375 250.457031 330.007812 251.132812 329.941406 C 251.804688 329.875 252.480469 329.84375 253.15625 329.84375 C 253.835938 329.84375 254.511719 329.875 255.183594 329.941406 C 255.859375 330.007812 256.527344 330.109375 257.191406 330.238281 C 257.855469 330.371094 258.511719 330.535156 259.160156 330.734375 C 259.808594 330.929688 260.445312 331.15625 261.070312 331.417969 C 261.695312 331.675781 262.304688 331.964844 262.902344 332.285156 C 263.5 332.601562 264.082031 332.949219 264.644531 333.324219 C 265.207031 333.703125 265.75 334.105469 266.273438 334.535156 C 266.796875 334.964844 267.296875 335.417969 267.777344 335.894531 C 268.253906 336.375 268.710938 336.875 269.140625 337.398438 C 269.570312 337.921875 269.972656 338.464844 270.347656 339.027344 C 270.722656 339.589844 271.070312 340.171875 271.390625 340.769531 C 271.710938 341.363281 272 341.976562 272.257812 342.601562 C 272.515625 343.226562 272.746094 343.863281 272.941406 344.511719 C 273.136719 345.160156 273.304688 345.816406 273.433594 346.480469 C 273.566406 347.140625 273.667969 347.8125 273.734375 348.484375 C 273.800781 349.160156 273.832031 349.832031 273.832031 350.511719 Z M 273.832031 350.511719 " fill-opacity="1" fill-rule="nonzero"/><path fill="#fec4b9" d="M 163.683594 629.296875 C 160.1875 627.566406 157.265625 624.527344 155.777344 620.414062 L 151.824219 609.460938 C 150.242188 605.101562 146.878906 601.640625 142.550781 599.960938 L 124.457031 592.890625 C 123.785156 592.628906 123.132812 592.351562 122.496094 592.042969 C 110.574219 586.476562 103.078125 574.265625 103.617188 560.992188 L 104.140625 547.867188 C 104.386719 542.023438 101.855469 536.390625 97.332031 532.683594 L 81.148438 519.378906 C 77 515.984375 74.710938 511.347656 74.207031 506.546875 C 73.472656 499.527344 76.542969 492.195312 83.203125 488 C 104.628906 474.5 129.503906 468.347656 152.59375 468.6875 C 181.679688 469.113281 207.921875 479.824219 220.726562 499.054688 C 227.289062 508.914062 230.636719 520.242188 231.046875 532.308594 C 232.125 563.324219 213.867188 599.175781 181.449219 627.109375 C 176.222656 631.613281 169.21875 632.070312 163.683594 629.296875 Z M 163.683594 629.296875 " fill-opacity="1" fill-rule="nonzero"/><path fill="#e7f2f1" d="M 99.796875 655.777344 C 94.75 658.859375 89.785156 662.140625 84.871094 665.621094 C 86.292969 660.25 87.875 655.023438 89.621094 649.964844 C 97.363281 627.386719 108.238281 607.992188 122.496094 592.042969 C 123.132812 592.351562 123.785156 592.628906 124.457031 592.890625 L 142.550781 599.960938 C 146.878906 601.640625 150.242188 605.101562 151.824219 609.460938 L 155.777344 620.414062 C 157.265625 624.527344 160.1875 627.566406 163.683594 629.296875 C 141.128906 634.195312 119.949219 643.382812 99.796875 655.777344 Z M 99.796875 655.777344 " fill-opacity="1" fill-rule="nonzero"/><path fill="#e7f2f1" d="M 97.332031 532.683594 C 101.855469 536.390625 104.386719 542.023438 104.140625 547.867188 C 74.289062 545.679688 47.585938 551.472656 23.417969 563.703125 C 15.335938 567.800781 7.542969 572.613281 0 578.101562 C 5.78125 565.332031 12.460938 553.972656 20.136719 544.175781 C 34.457031 525.875 52.226562 513.011719 74.09375 506.546875 L 74.207031 506.546875 C 74.710938 511.347656 77 515.984375 81.148438 519.378906 Z M 97.332031 532.683594 " fill-opacity="1" fill-rule="nonzero"/><path fill="#e7f2f1" d="M 44.777344 617.230469 C 38.476562 620.9375 32.238281 624.96875 26.046875 629.261719 C 29.3125 621.117188 33.152344 613.574219 37.496094 606.585938 C 54.21875 579.503906 78.238281 560.699219 104.140625 547.867188 L 103.617188 560.992188 C 103.078125 574.265625 110.574219 586.476562 122.496094 592.042969 C 95.175781 592.921875 69.519531 602.621094 44.777344 617.230469 Z M 44.777344 617.230469 " fill-opacity="1" fill-rule="nonzero"/><path fill="#543927" d="M 231.09375 532.308594 C 231.09375 532.308594 246.902344 526.269531 263.773438 525.761719 C 276.394531 592.742188 212.804688 657.425781 180.257812 655.777344 C 147.726562 654.125 131.820312 671.351562 131.820312 671.351562 C 120.945312 666.8125 110.050781 661.441406 99.796875 655.777344 C 119.949219 643.382812 141.128906 634.195312 163.683594 629.296875 C 169.21875 632.070312 176.222656 631.613281 181.449219 627.109375 C 213.867188 599.175781 232.125 563.324219 231.046875 532.308594 Z M 231.09375 532.308594 " fill-opacity="1" fill-rule="nonzero"/><path fill="#543927" d="M 578.90625 532.308594 L 578.953125 532.308594 C 577.875 563.324219 596.132812 599.175781 628.550781 627.109375 C 633.777344 631.613281 640.78125 632.070312 646.316406 629.296875 C 668.871094 634.195312 690.050781 643.382812 710.203125 655.777344 C 699.949219 661.441406 689.054688 666.828125 678.179688 671.351562 C 668.25 655.074219 640.472656 655.777344 640.472656 655.777344 C 552.140625 640.183594 546.195312 525.761719 546.195312 525.761719 L 546.195312 525.746094 C 563.0625 526.269531 578.90625 532.308594 578.90625 532.308594 Z M 578.90625 532.308594 " fill-opacity="1" fill-rule="nonzero"/><path fill="#896b52" d="M 484.089844 142.773438 C 585.683594 192.207031 647.609375 333.828125 657.40625 468.6875 C 628.320312 469.113281 602.078125 479.824219 589.273438 499.054688 C 614.898438 294.335938 485.933594 144.894531 484.089844 142.773438 Z M 484.089844 142.773438 " fill-opacity="1" fill-rule="nonzero"/><path fill="#896b52" d="M 491.398438 358.152344 C 509.476562 376.402344 520.628906 401.511719 520.628906 429.246094 C 520.628906 485.078125 475.347656 530.347656 419.496094 530.347656 C 382.914062 530.347656 350.875 510.9375 333.121094 481.863281 C 351.460938 500.390625 376.90625 511.867188 405.027344 511.867188 C 460.875 511.867188 506.234375 466.597656 506.160156 410.765625 C 506.136719 391.511719 500.773438 373.480469 491.398438 358.152344 Z M 491.398438 358.152344 " fill-opacity="1" fill-rule="nonzero"/><path fill="#f48ca7" d="M 431.617188 439.53125 C 433.261719 439.53125 434.90625 438.917969 436.171875 437.683594 C 438.757812 435.167969 438.816406 431.035156 436.300781 428.449219 L 411.53125 402.988281 L 411.53125 359.898438 C 411.53125 356.292969 408.609375 353.367188 405 353.367188 C 401.390625 353.367188 398.46875 356.292969 398.46875 359.898438 L 398.46875 402.988281 L 373.699219 428.449219 C 371.183594 431.035156 371.242188 435.167969 373.828125 437.683594 C 376.410156 440.195312 380.546875 440.140625 383.0625 437.554688 L 405 415.007812 L 426.9375 437.554688 C 428.21875 438.871094 429.917969 439.53125 431.617188 439.53125 Z M 431.617188 439.53125 " fill-opacity="1" fill-rule="nonzero"/><path fill="#c68642" d="M 286.300781 587.339844 C 283.699219 584.835938 279.5625 584.914062 277.0625 587.511719 C 274.5625 590.109375 274.640625 594.242188 277.238281 596.746094 L 299.332031 618.015625 C 300.597656 619.238281 302.230469 619.84375 303.863281 619.84375 C 305.574219 619.84375 307.289062 619.171875 308.566406 617.839844 C 311.070312 615.242188 310.992188 611.109375 308.394531 608.609375 Z M 286.300781 587.339844 " fill-opacity="1" fill-rule="nonzero"/><path fill="#c68642" d="M 239.496094 616.246094 C 236.195312 614.800781 232.339844 616.304688 230.890625 619.605469 L 217.53125 650.085938 C 216.082031 653.390625 217.589844 657.242188 220.894531 658.691406 C 221.746094 659.0625 222.636719 659.238281 223.515625 659.238281 C 226.027344 659.238281 228.425781 657.777344 229.5 655.328125 L 242.859375 624.847656 C 244.308594 621.542969 242.800781 617.691406 239.496094 616.246094 Z M 239.496094 616.246094 " fill-opacity="1" fill-rule="nonzero"/><path fill="#c68642" d="M 360.714844 623.140625 C 358.574219 620.234375 354.488281 619.613281 351.582031 621.75 C 348.675781 623.886719 348.054688 627.976562 350.191406 630.882812 L 364.578125 650.421875 C 365.859375 652.160156 367.839844 653.082031 369.84375 653.082031 C 371.1875 653.082031 372.546875 652.667969 373.710938 651.8125 C 376.617188 649.671875 377.238281 645.585938 375.101562 642.679688 Z M 360.714844 623.140625 " fill-opacity="1" fill-rule="nonzero"/><path fill="#c68642" d="M 380.148438 576.027344 C 377.714844 573.367188 373.582031 573.183594 370.917969 575.617188 C 368.257812 578.046875 368.074219 582.179688 370.507812 584.839844 L 381.121094 596.449219 C 382.410156 597.855469 384.171875 598.570312 385.945312 598.570312 C 387.519531 598.570312 389.097656 598.003906 390.351562 596.859375 C 393.011719 594.429688 393.195312 590.296875 390.761719 587.636719 Z M 380.148438 576.027344 " fill-opacity="1" fill-rule="nonzero"/><path fill="#c68642" d="M 434.25 615.105469 L 413.3125 632.425781 C 410.53125 634.726562 410.144531 638.84375 412.445312 641.621094 C 413.734375 643.179688 415.601562 643.988281 417.480469 643.988281 C 418.945312 643.988281 420.421875 643.496094 421.640625 642.488281 L 442.578125 625.167969 C 445.355469 622.867188 445.746094 618.75 443.445312 615.976562 C 441.144531 613.195312 437.027344 612.808594 434.25 615.105469 Z M 434.25 615.105469 " fill-opacity="1" fill-rule="nonzero"/><path fill="#c68642" d="M 516.285156 610.722656 C 513.90625 608.015625 509.78125 607.742188 507.066406 610.121094 C 504.355469 612.5 504.085938 616.625 506.464844 619.335938 L 520.511719 635.335938 C 521.804688 636.804688 523.609375 637.558594 525.425781 637.558594 C 526.957031 637.558594 528.492188 637.023438 529.730469 635.9375 C 532.441406 633.558594 532.710938 629.429688 530.332031 626.71875 Z M 516.285156 610.722656 " fill-opacity="1" fill-rule="nonzero"/><path fill="#c68642" d="M 556.679688 568.714844 C 553.175781 567.914062 549.660156 570.109375 548.859375 573.628906 L 542.699219 600.597656 C 541.898438 604.113281 544.097656 607.613281 547.617188 608.417969 C 548.105469 608.527344 548.59375 608.582031 549.074219 608.582031 C 552.054688 608.582031 554.746094 606.53125 555.4375 603.503906 L 561.597656 576.53125 C 562.398438 573.015625 560.195312 569.515625 556.679688 568.714844 Z M 556.679688 568.714844 " fill-opacity="1" fill-rule="nonzero"/><path fill="#c68642" d="M 615.5625 650.226562 L 595.6875 637.914062 C 592.621094 636.019531 588.59375 636.964844 586.695312 640.027344 C 584.796875 643.09375 585.742188 647.117188 588.808594 649.019531 L 608.683594 661.328125 C 609.753906 661.992188 610.941406 662.308594 612.117188 662.308594 C 614.304688 662.308594 616.4375 661.210938 617.675781 659.214844 C 619.574219 656.148438 618.628906 652.125 615.5625 650.226562 Z M 615.5625 650.226562 " fill-opacity="1" fill-rule="nonzero"/><path fill="#c68642" d="M 471.84375 581.175781 C 469.648438 578.3125 465.546875 577.773438 462.6875 579.972656 C 459.824219 582.171875 459.289062 586.269531 461.484375 589.128906 L 472.574219 603.5625 C 473.859375 605.234375 475.800781 606.113281 477.757812 606.113281 C 479.148438 606.113281 480.546875 605.671875 481.734375 604.761719 C 484.59375 602.5625 485.132812 598.464844 482.933594 595.605469 Z M 471.84375 581.175781 " fill-opacity="1" fill-rule="nonzero"/><path fill="#655f68" d="M 446.347656 318.449219 C 446.070312 319.445312 435 359.898438 405 359.898438 C 375 359.898438 363.929688 319.445312 363.652344 318.449219 C 376.273438 312.78125 390.269531 309.632812 405 309.632812 C 419.730469 309.632812 433.726562 312.78125 446.347656 318.449219 Z M 446.347656 318.449219 " fill-opacity="1" fill-rule="nonzero"/></svg>